<svg width="640" height="360" viewBox="0 0 640 360" xmlns="http://www.w3.org/2000/svg">
  <rect width="640" height="360" rx="24" fill="#fdf3e8"/>
  <rect x="70" y="110" width="500" height="170" rx="20" fill="#d9f0ff"/>
  <path d="M95 240h290l42-70h92v70h58v44h-58v24h-42v-24H95z" fill="#4a4a4a"/>
  <path d="M135 184h130l20-36h-80z" fill="#2e2e2e"/>
  <rect x="148" y="180" width="100" height="35" rx="8" fill="#7a7a7a"/>
  <circle cx="205" cy="248" r="42" fill="#1f1f1f"/>
  <circle cx="205" cy="248" r="20" fill="#f7f7f7"/>
  <circle cx="385" cy="248" r="42" fill="#1f1f1f"/>
  <circle cx="385" cy="248" r="20" fill="#f7f7f7"/>
  <path d="M420 125l56-40" stroke="#b33a3a" stroke-width="12" stroke-linecap="round"/>
  <path d="M430 122l36-24" stroke="#d9534f" stroke-width="8" stroke-linecap="round"/>
  <path d="M490 135l48-22" stroke="#b33a3a" stroke-width="12" stroke-linecap="round"/>
  <path d="M530 120l22 10" stroke="#d9534f" stroke-width="8" stroke-linecap="round"/>
  <path d="M160 120l-40-40" stroke="#b33a3a" stroke-width="12" stroke-linecap="round"/>
  <path d="M156 118l-24-24" stroke="#d9534f" stroke-width="8" stroke-linecap="round"/>
  <text x="320" y="320" text-anchor="middle" font-family="Arial, sans-serif" font-size="28" fill="#8a3b3b">Truck broke down</text>
</svg>
